<?xml version="1.0" encoding="utf-8"?>
<!-- Generator: Adobe Illustrator 26.0.3, SVG Export Plug-In . SVG Version: 6.00 Build 0)  -->
<svg version="1.1" id="Layer_1" xmlns="http://www.w3.org/2000/svg" xmlns:xlink="http://www.w3.org/1999/xlink" x="0px" y="0px"
	 viewBox="0 0 1024 1024" style="enable-background:new 0 0 1024 1024;" xml:space="preserve">
<g>
	<g>
		<polygon points="286.1,774.2 0,487.2 230.4,251.4 266.5,286.6 71,486.8 321.9,738.6 		"/>
	</g>
	<g>
		<polygon points="286.1,774.2 0,487.2 230.4,251.4 266.5,286.6 71,486.8 321.9,738.6 		"/>
	</g>
	<polygon points="797.7,768.1 761.5,732.9 952.7,537 852.2,437.9 691.6,286.5 726.2,249.8 887.4,401.7 1024,536.3 	"/>
	<rect x="243" y="485.8" transform="matrix(0.7016 -0.7126 0.7126 0.7016 -212.1271 515.5195)" width="532.7" height="50.5"/>
	<polygon points="271.4,650.1 103.1,481.7 277.9,466.8 277.9,299 382,403.1 451,471.2 421.4,501.2 352.4,433 320,400.6 320,505.5 
		196.9,516 301.2,620.3 	"/>
	<polygon points="738,704.9 662.2,630.9 573.9,545 603.2,514.9 676.5,586 785.1,474.1 711.1,402.9 740.3,372.5 829.6,458.4 
		815,473.6 829.7,458.5 907.1,534.3 877.7,564.4 815.4,503.4 706.6,615.4 767.4,674.8 	"/>
</g>
</svg>
