<svg xmlns="http://www.w3.org/2000/svg" width="334" height="205" fill="none" viewBox="0 0 334 205"><path fill="#06C4B8" fill-rule="evenodd" d="M216.975 13.2738C216.975 5.94788 210.979 0 203.593 0H158.031C150.646 0 144.65 5.94788 144.65 13.2738V39.8212C144.65 47.1471 150.646 53.095 158.031 53.095H203.593C210.979 53.095 216.975 47.1471 216.975 39.8212V13.2738Z" clip-rule="evenodd"/><path fill="#03B2C8" fill-rule="evenodd" d="M289.3 13.2738C289.3 5.94788 283.303 0 275.918 0H230.356C222.97 0 216.975 5.94788 216.975 13.2738V39.8212C216.975 47.1471 222.97 53.095 230.356 53.095H275.918C283.303 53.095 289.3 47.1471 289.3 39.8212V13.2738Z" clip-rule="evenodd"/><path fill="#158C9B" fill-rule="evenodd" d="M144.65 13.2738C144.65 5.94788 138.654 0 131.268 0H85.7058C78.3204 0 72.3247 5.94788 72.3247 13.2738V39.8212C72.3247 47.1471 78.3204 53.095 85.7058 53.095H131.268C138.654 53.095 144.65 47.1471 144.65 39.8212V13.2738Z" clip-rule="evenodd"/><path fill="url(#paint0_linear_177_2286)" fill-rule="evenodd" d="M0 13.2737V191.99C0 198.839 5.60591 204.4 12.5105 204.4H321.491L321.571 204.4C328.441 204.357 334 198.813 334 191.99V36.8429C334 29.9939 328.394 24.4331 321.491 24.4331H72.3249V13.2737C72.3249 5.94795 66.329 0 58.9436 0H13.3814C5.99588 0 0 5.94795 0 13.2737Z" clip-rule="evenodd"/><defs><linearGradient id="paint0_linear_177_2286" x1="231.055" x2="228.116" y1="92.709" y2="312.955" gradientUnits="userSpaceOnUse"><stop stop-color="#52FAF0"/><stop offset="1" stop-color="#52FAF0" stop-opacity="0"/></linearGradient></defs></svg>