<svg xmlns="http://www.w3.org/2000/svg" width="281" height="250" fill="none" viewBox="0 0 281 250"><g clip-path="url(#clip0_263_29)"><path fill="#fff" d="M101.472 0C86.8856 0 74.787 10.0009 71.3233 23.5142C70.933 23.5142 70.6403 23.4167 70.25 23.4167C53.029 23.4167 39.0278 37.4179 39.0278 54.6389C39.0278 56.9806 39.3205 59.2734 39.8571 61.4688C25.612 67.3229 15.6111 81.2754 15.6111 97.5695C15.6111 103.716 17.1722 109.424 19.6602 114.595C7.95191 121.328 0 133.816 0 148.306C0 164.551 9.95208 178.503 24.0997 184.357C23.6606 186.602 23.4167 188.894 23.4167 191.236C23.4167 210.652 39.1253 226.361 58.5417 226.361C60.5418 226.361 62.4932 226.117 64.3958 225.776C69.0792 239.679 82.0559 249.778 97.5694 249.778C116.986 249.778 132.694 234.069 132.694 214.653V31.2222C132.694 14.0012 118.693 0 101.472 0ZM281 148.306C281 133.816 273.048 121.328 261.34 114.595C263.877 109.424 265.389 103.716 265.389 97.5695C265.389 81.2754 255.388 67.3229 241.143 61.4688C241.631 59.2734 241.972 56.9806 241.972 54.6389C241.972 37.4179 227.971 23.4167 210.75 23.4167C210.36 23.4167 210.018 23.5142 209.677 23.5142C206.213 10.0009 194.114 0 179.528 0C162.307 0 148.306 13.9524 148.306 31.2222V214.653C148.306 234.069 164.014 249.778 183.431 249.778C198.944 249.778 211.921 239.679 216.604 225.776C218.507 226.117 220.458 226.361 222.458 226.361C241.875 226.361 257.583 210.652 257.583 191.236C257.583 188.894 257.339 186.602 256.9 184.357C271.048 178.503 281 164.551 281 148.306Z"/></g><defs><clipPath id="clip0_263_29"><rect width="281" height="249.778" fill="#fff"/></clipPath></defs></svg>