<svg width="35" height="34" viewBox="0 0 35 34" fill="none" xmlns="http://www.w3.org/2000/svg">
<path d="M14.415 2.53043C6.50452 3.90275 1.26057 11.4054 2.70228 19.288C4.14399 27.1706 11.7254 32.4482 19.6359 31.0759C27.5463 29.7036 32.7902 22.2009 31.3485 14.3183C29.9068 6.43574 22.3254 1.15811 14.415 2.53043Z" fill="#2E9F9A"/>
<path d="M22.1429 10C23.1672 10 24 10.8314 24 11.8571L24 21.1429C24 22.1672 23.1672 23 22.1429 23L12.8571 23C11.8314 23 11 22.1672 11 21.1429L11 11.8571C11 10.8314 11.8314 10 12.8571 10L22.1429 10ZM22.1429 11.3929L12.8571 11.3929C12.6006 11.3929 12.3929 11.6006 12.3929 11.8571L12.3929 21.1429C12.3929 21.3982 12.6006 21.6071 12.8571 21.6071L22.1429 21.6071C22.3982 21.6071 22.6071 21.3982 22.6071 21.1429L22.6071 11.8571C22.6071 11.6006 22.3982 11.3929 22.1429 11.3929Z" fill="#A4F3EE" stroke="#A4F3EE" stroke-width="0.8"/>
</svg>
