<svg width="27" height="26" viewBox="0 0 27 26" fill="none" xmlns="http://www.w3.org/2000/svg">
    <path d="M15.3003 2.49547C9.33526 1.46063 3.70638 5.45565 2.72789 11.4186C1.74939 17.3815 5.79182 23.0543 11.7569 24.0892C17.722 25.124 23.3508 21.129 24.3293 15.166C25.3078 9.20311 21.2654 3.5303 15.3003 2.49547Z"
          fill="#158C9B"/>
    <path d="M17.4286 7.8125L9.57167 7.8125C8.70371 7.8125 8.00021 8.53994 8.00016 9.4375L8 17.5396C7.99995 18.4588 8.70346 19.1875 9.57143 19.1875L15.2703 19.1875C15.8954 19.1875 16.495 18.9305 16.9373 18.4735L18.3093 17.0544C18.752 16.5748 19 15.9781 19 15.3307L19 9.4375C19 8.54375 18.2929 7.8125 17.4286 7.8125ZM9.29373 17.8494C9.25076 17.8062 9.17857 17.7098 9.17857 17.5625L9.17905 9.46035C9.17906 9.21355 9.35536 9.03125 9.57192 9.03125L17.4286 9.03125C17.6415 9.03125 17.8214 9.21731 17.8214 9.4375L17.8214 14.3125L15.6607 14.3125C14.902 14.3125 14.2857 14.9498 14.2857 15.7344L14.2857 17.9688L9.57143 17.9688C9.42975 17.9688 9.3367 17.8951 9.29373 17.8494ZM16.1051 17.6107C15.9283 17.7936 15.7049 17.9078 15.4643 17.9484L15.4643 15.7344C15.4643 15.6225 15.5525 15.5313 15.6607 15.5313L17.8025 15.5313C17.7628 15.7804 17.6524 16.0106 17.4762 16.1927L16.1051 17.6107Z"
          fill="#2C2D2E"/>
</svg>
