<svg width="26" height="26" viewBox="0 0 26 26" fill="none" xmlns="http://www.w3.org/2000/svg">
    <path d="M14.4624 2.49547C8.49737 1.46063 2.86849 5.45565 1.89 11.4186C0.911501 17.3815 4.95393 23.0543 10.919 24.0892C16.8841 25.124 22.513 21.129 23.4914 15.166C24.4699 9.20311 20.4275 3.5303 14.4624 2.49547Z"
          fill="#158C9B"/>
    <path d="M18.6475 17.3313C19.1162 17.7708 19.1162 18.4827 18.6475 18.9222C18.415 19.1419 18.1075 19.2509 17.8 19.2509C17.4925 19.2509 17.1858 19.141 16.9517 18.9213L13 15.2185L9.04863 18.9204C8.81425 19.1419 8.50712 19.2509 8.2 19.2509C7.89287 19.2509 7.58612 19.1419 7.35156 18.9204C6.88281 18.481 6.88281 17.769 7.35156 17.3296L11.3041 13.6241L7.35156 9.92041C6.88281 9.48096 6.88281 8.76904 7.35156 8.32959C7.82031 7.89014 8.57969 7.89014 9.04844 8.32959L13 12.0368L16.9525 8.33135C17.4212 7.89189 18.1806 7.89189 18.6494 8.33135C19.1181 8.7708 19.1181 9.48271 18.6494 9.92217L14.6969 13.6276L18.6475 17.3313Z"
          fill="#2C2D2E"/>
</svg>
