<svg width="35" height="34" viewBox="0 0 35 34" fill="none" xmlns="http://www.w3.org/2000/svg">
<path d="M19.7138 2.48518C11.8034 1.11286 4.33877 6.41076 3.04116 14.3184C1.74356 22.226 7.10432 29.7488 15.0148 31.1212C22.9252 32.4935 30.3898 27.1956 31.6874 19.288C32.985 11.3804 27.6243 3.8575 19.7138 2.48518Z" fill="#2E9F9A"/>
<path d="M25.2625 22.1602C25.8841 22.743 25.8841 23.687 25.2625 24.2698C24.9541 24.5612 24.5464 24.7057 24.1386 24.7057C23.7308 24.7057 23.324 24.56 23.0137 24.2687L17.7732 19.3582L12.5331 24.2675C12.2223 24.5612 11.815 24.7057 11.4078 24.7057C11.0005 24.7057 10.5937 24.5612 10.2826 24.2675C9.661 23.6847 9.661 22.7406 10.2826 22.1579L15.5241 17.2439L10.2826 12.3324C9.661 11.7496 9.661 10.8055 10.2826 10.2227C10.9042 9.63995 11.9113 9.63995 12.5329 10.2227L17.7732 15.139L23.0147 10.2251C23.6363 9.64228 24.6433 9.64228 25.2649 10.2251C25.8866 10.8078 25.8866 11.7519 25.2649 12.3347L20.0234 17.2486L25.2625 22.1602Z" fill="#A4F3EE"/>
</svg>
