<svg width="281" height="225" viewBox="0 0 281 225" fill="none" xmlns="http://www.w3.org/2000/svg">
<g clip-path="url(#clip0_272_6)">
<path d="M210.781 42.1499H70.2498C58.667 42.1482 47.2635 45.0106 37.0545 50.4822C26.8455 55.9538 18.1478 63.8648 11.7358 73.511C5.32379 83.1571 1.3964 94.2391 0.303297 105.77C-0.789811 117.301 0.985275 128.924 5.47052 139.603C9.95577 150.282 17.012 159.687 26.011 166.979C35.01 174.271 45.6726 179.226 57.0494 181.4C68.4262 183.575 80.1642 182.903 91.2185 179.444C102.273 175.985 112.3 169.847 120.408 161.575H160.591C168.698 169.846 178.725 175.984 189.777 179.443C200.83 182.902 212.567 183.575 223.943 181.402C235.318 179.229 245.98 174.276 254.98 166.986C263.979 159.696 271.036 150.294 275.523 139.617C280.01 128.94 281.788 117.319 280.698 105.789C279.608 94.2592 275.685 83.1773 269.277 73.5302C262.868 63.883 254.175 55.9698 243.969 50.4949C233.763 45.02 222.362 42.1533 210.781 42.1499ZM108.887 117.669C108.887 119.066 108.332 120.406 107.344 121.394C106.356 122.382 105.016 122.937 103.619 122.937H80.7873V145.769C80.7873 147.166 80.2322 148.506 79.2441 149.494C78.256 150.482 76.9159 151.037 75.5185 151.037H64.981C63.5837 151.037 62.2436 150.482 61.2555 149.494C60.2674 148.506 59.7123 147.166 59.7123 145.769V122.937H36.8811C35.4837 122.937 34.1436 122.382 33.1555 121.394C32.1674 120.406 31.6123 119.066 31.6123 117.669V107.131C31.6123 105.734 32.1674 104.394 33.1555 103.406C34.1436 102.418 35.4837 101.862 36.8811 101.862H59.7123V79.0312C59.7123 77.6338 60.2674 76.2937 61.2555 75.3056C62.2436 74.3175 63.5837 73.7624 64.981 73.7624H75.5185C76.9159 73.7624 78.256 74.3175 79.2441 75.3056C80.2322 76.2937 80.7873 77.6338 80.7873 79.0312V101.862H103.619C105.016 101.862 106.356 102.418 107.344 103.406C108.332 104.394 108.887 105.734 108.887 107.131V117.669ZM203.725 151.037C200.251 151.037 196.856 150.007 193.968 148.078C191.079 146.148 188.828 143.405 187.499 140.196C186.17 136.987 185.822 133.455 186.5 130.049C187.177 126.642 188.85 123.512 191.306 121.056C193.762 118.6 196.892 116.928 200.299 116.25C203.705 115.572 207.237 115.92 210.446 117.249C213.655 118.579 216.398 120.83 218.327 123.718C220.257 126.606 221.287 130.001 221.287 133.475C221.287 138.133 219.437 142.6 216.143 145.893C212.85 149.187 208.383 151.037 203.725 151.037ZM231.825 108.887C228.351 108.887 224.956 107.857 222.068 105.928C219.179 103.998 216.928 101.255 215.599 98.0458C214.27 94.8367 213.922 91.3054 214.6 87.8986C215.277 84.4918 216.95 81.3625 219.406 78.9063C221.862 76.4502 224.992 74.7775 228.399 74.0999C231.805 73.4222 235.337 73.77 238.546 75.0993C241.755 76.4285 244.498 78.6796 246.427 81.5677C248.357 84.4558 249.387 87.8514 249.387 91.3249C249.387 95.9828 247.537 100.45 244.243 103.743C240.95 107.037 236.483 108.887 231.825 108.887Z" fill="white"/>
</g>
<defs>
<clipPath id="clip0_272_6">
<rect width="281" height="224.8" fill="white"/>
</clipPath>
</defs>
</svg>
