<svg xmlns="http://www.w3.org/2000/svg" width="281" height="225" fill="none" viewBox="0 0 281 225"><g clip-path="url(#clip0_271_2)"><path fill="#fff" d="M111.974 114.881C114.718 117.625 119.166 117.625 121.91 114.881L126.876 109.915C129.62 107.171 129.62 102.723 126.876 99.9789L111.193 84.3L126.871 68.6167C129.616 65.8726 129.616 61.4248 126.871 58.6807L121.906 53.7149C119.162 50.9708 114.714 50.9708 111.97 53.7149L86.3548 79.3298C83.6107 82.074 83.6107 86.5217 86.3548 89.2658L111.974 114.881ZM154.129 109.919L159.094 114.885C161.838 117.629 166.286 117.629 169.03 114.885L194.645 89.2702C197.389 86.5261 197.389 82.0783 194.645 79.3342L169.03 53.7193C166.286 50.9752 161.838 50.9752 159.094 53.7193L154.129 58.6851C151.384 61.4292 151.384 65.8769 154.129 68.6211L169.807 84.3L154.129 99.9833C151.384 102.727 151.384 107.175 154.129 109.919ZM273.975 182.65H167.52C167.195 191.348 161.061 196.7 153.145 196.7H126.45C118.244 196.7 111.952 189.03 112.062 182.65H7.025C3.16125 182.65 0 185.811 0 189.675V196.7C0 212.155 12.645 224.8 28.1 224.8H252.9C268.355 224.8 281 212.155 281 196.7V189.675C281 185.811 277.839 182.65 273.975 182.65ZM252.9 21.075C252.9 9.48375 243.416 0 231.825 0H49.175C37.5838 0 28.1 9.48375 28.1 21.075V168.6H252.9V21.075ZM224.8 140.5H56.2V28.1H224.8V140.5Z"/></g><defs><clipPath id="clip0_271_2"><rect width="281" height="224.8" fill="#fff"/></clipPath></defs></svg>