<svg xmlns="http://www.w3.org/2000/svg" width="289" height="289" fill="none" viewBox="0 0 289 289"><g filter="url(#filter0_d_273_8)"><path fill="#fff" d="M91.8125 193.188H197.188V87.8125H91.8125V193.188ZM249.875 96.5938H276.219C281.048 96.5938 285 92.6422 285 87.8125C285 82.9828 281.069 79.0312 276.219 79.0312H249.875V70.25C249.875 50.8489 234.151 35.125 214.75 35.125H205.969V8.78125C205.969 3.9318 202.017 0 197.188 0C192.338 0 188.406 3.9318 188.406 8.78125V35.125H153.281V8.78125C153.281 3.9318 149.33 0 144.5 0C139.67 0 135.719 3.9318 135.719 8.78125V35.125H100.594V8.78125C100.594 3.9318 96.6422 0 91.8125 0C86.9828 0 83.0312 3.9318 83.0312 8.78125V35.125H74.25C54.8489 35.125 39.125 50.8489 39.125 70.25V79.0312H12.7812C7.9318 79.0312 4 82.9828 4 87.8125C4 92.6422 7.9318 96.5938 12.7812 96.5938H39.125V131.719H12.7812C7.9318 131.719 4 135.67 4 140.5C4 145.33 7.9318 149.281 12.7812 149.281H39.125V184.406H12.7812C7.9318 184.406 4 188.358 4 193.188C4 198.017 7.9318 201.969 12.7812 201.969H39.125V210.75C39.125 230.151 54.8489 245.875 74.25 245.875H83.0312V272.219C83.0312 277.048 86.9828 281 91.8125 281C96.663 281 100.594 277.068 100.594 272.219V245.875H135.719V272.219C135.719 277.068 139.651 281 144.5 281C149.351 281 153.281 277.068 153.281 272.219V245.875H188.406V272.219C188.406 277.068 192.338 281 197.188 281C202.038 281 205.969 277.068 205.969 272.219V245.875H214.75C234.151 245.875 249.875 230.151 249.875 210.75V201.969H276.219C281.069 201.969 285 198.037 285 193.188C285 188.338 281.069 184.406 276.219 184.406H249.875V149.281H276.219C281.048 149.281 285 145.33 285 140.5C285 135.67 281.069 131.719 276.219 131.719H249.875V96.5938ZM214.75 201.969C214.75 206.818 210.819 210.75 205.969 210.75H83.0312C78.2016 210.75 74.25 206.798 74.25 201.969V79.0312C74.25 74.2016 78.2016 70.25 83.0312 70.25H205.969C210.798 70.25 214.75 74.2016 214.75 79.0312V201.969Z"/></g><defs><filter id="filter0_d_273_8" width="289" height="289" x="0" y="0" color-interpolation-filters="sRGB" filterUnits="userSpaceOnUse"><feFlood flood-opacity="0" result="BackgroundImageFix"/><feColorMatrix in="SourceAlpha" result="hardAlpha" type="matrix" values="0 0 0 0 0 0 0 0 0 0 0 0 0 0 0 0 0 0 127 0"/><feOffset dy="4"/><feGaussianBlur stdDeviation="2"/><feComposite in2="hardAlpha" operator="out"/><feColorMatrix type="matrix" values="0 0 0 0 0 0 0 0 0 0 0 0 0 0 0 0 0 0 0.25 0"/><feBlend in2="BackgroundImageFix" mode="normal" result="effect1_dropShadow_273_8"/><feBlend in="SourceGraphic" in2="effect1_dropShadow_273_8" mode="normal" result="shape"/></filter></defs></svg>