<svg xmlns="http://www.w3.org/2000/svg" width="1246" height="800" fill="none" viewBox="0 0 1246 800"><path fill="#363636" fill-rule="evenodd" d="M895.425 113.321L1167.89 167.179L1143.91 411.522L856.623 508.675L703.055 324.377L895.425 113.321Z" clip-rule="evenodd"/><path fill="#242424" fill-rule="evenodd" d="M98.4002 504.52L22.4985 242.32L276.964 159.078L98.4002 504.52Z" clip-rule="evenodd"/><path fill="#2E2F30" fill-rule="evenodd" d="M109.797 295.854L698.546 514.237L343.522 704.054L46.0266 593.705L109.797 295.854Z" clip-rule="evenodd"/><path fill="#252526" fill-rule="evenodd" d="M904.775 164.049L1220.57 397.028L987.19 577.463L904.775 164.049Z" clip-rule="evenodd"/><path fill="#2E2F30" fill-rule="evenodd" d="M746.801 214.016L854.487 20.3321L1114.34 290.299L746.801 214.016Z" clip-rule="evenodd"/><path fill="#212121" fill-rule="evenodd" d="M280.102 82.3729L213.579 62.3586L276.456 14.837L280.102 82.3729Z" clip-rule="evenodd"/><path fill="#242424" fill-rule="evenodd" d="M557.498 62.5613L632.216 98.335L552.849 144.69L557.498 62.5613Z" clip-rule="evenodd"/><path fill="#212121" fill-rule="evenodd" d="M1156.22 537.223L1153.6 582.113L1113.1 553.227L1156.22 537.223Z" clip-rule="evenodd"/><path fill="#363636" fill-rule="evenodd" d="M1134.47 639.943L1164.72 657.749L1131.81 675.02L1134.47 639.943Z" clip-rule="evenodd"/><path fill="#363636" fill-rule="evenodd" d="M158.452 724.331L112.26 705.052L159.14 675.021L158.452 724.331Z" clip-rule="evenodd"/><path fill="#252526" fill-rule="evenodd" d="M307.901 37.3628L291.988 3.45665e-05L334.938 8.95429L307.901 37.3628Z" clip-rule="evenodd"/><path fill="#212121" fill-rule="evenodd" d="M1192.05 587.292L1187.24 616.039L1164.72 599.225L1192.05 587.292Z" clip-rule="evenodd"/></svg>