<svg width="280" height="280" viewBox="0 0 280 280" fill="none" xmlns="http://www.w3.org/2000/svg">
<path d="M96.3047 248.445C96.3047 251.889 97.2978 255.248 99.1944 258.12L108.568 272.169C111.439 276.475 117.958 279.978 123.137 279.978H156.862C162.024 279.978 168.544 276.478 171.415 272.169L180.755 258.125C182.362 255.698 183.68 251.36 183.68 248.445L183.75 227.008H96.25L96.3047 248.445ZM140 0C84.2297 0.175164 43.75 45.3742 43.75 95.7578C43.75 120.028 52.7406 142.155 67.5719 159.086C76.6117 169.389 90.7266 190.93 96.1297 209.098C96.1468 209.234 96.181 209.38 96.1981 209.525H183.807C183.825 209.38 183.859 209.243 183.876 209.098C189.276 190.93 203.394 169.389 212.434 159.086C227.281 142.625 236.25 120.531 236.25 95.7578C236.25 43.0938 193.156 0.00213281 140 0ZM192.719 142.242C184.155 152.004 173.556 167.562 165.895 183.745H114.155C106.493 167.562 95.8945 152.004 87.3359 142.248C76.1469 129.5 70 112.711 70 95.7578C70 61.9609 96.3047 26.3867 139.508 26.25C178.609 26.25 210 57.6406 210 95.7578C210 112.711 203.875 129.5 192.719 142.242ZM131.25 43.75C107.133 43.75 87.5 63.3828 87.5 87.5C87.5 92.3366 91.4134 96.25 96.25 96.25C101.087 96.25 105 92.3125 105 87.5C105 73.0242 116.774 61.25 131.25 61.25C136.087 61.25 140 57.3409 140 52.5055C140 47.67 136.063 43.75 131.25 43.75Z" fill="#C5FFFC"/>
</svg>
