<svg width="280" height="224" viewBox="0 0 280 224" fill="none" xmlns="http://www.w3.org/2000/svg">
<path d="M111.576 114.472C114.31 117.206 118.742 117.206 121.476 114.472L126.424 109.524C129.159 106.79 129.159 102.357 126.424 99.6231L110.797 84L126.42 68.3725C129.155 65.6382 129.155 61.2062 126.42 58.4719L121.472 53.5237C118.738 50.7894 114.306 50.7894 111.572 53.5237L86.0475 79.0475C83.3132 81.7819 83.3132 86.2138 86.0475 88.9481L111.576 114.472ZM153.58 109.528L158.528 114.476C161.262 117.21 165.694 117.21 168.428 114.476L193.952 88.9525C196.687 86.2182 196.687 81.7862 193.952 79.0519L168.428 53.5281C165.694 50.7938 161.262 50.7938 158.528 53.5281L153.58 58.4763C150.845 61.2106 150.845 65.6425 153.58 68.3769L169.203 84L153.58 99.6275C150.845 102.361 150.845 106.794 153.58 109.528ZM273 182H166.924C166.6 190.667 160.488 196 152.6 196H126C117.823 196 111.554 188.357 111.663 182H7C3.15 182 0 185.15 0 189V196C0 211.4 12.6 224 28 224H252C267.4 224 280 211.4 280 196V189C280 185.15 276.85 182 273 182ZM252 21C252 9.45 242.55 0 231 0H49C37.4501 0 28 9.45 28 21V168H252V21ZM224 140H56V28H224V140Z" fill="#C5FFFC"/>
</svg>
