<svg xmlns="http://www.w3.org/2000/svg" width="280" height="280" fill="none" viewBox="0 0 280 280"><path fill="#C5FFFC" d="M87.5 192.5H192.5V87.5H87.5V192.5ZM245 96.25H271.25C276.063 96.25 280 92.3125 280 87.5C280 82.6875 276.083 78.75 271.25 78.75H245V70C245 50.668 229.332 35 210 35H201.25V8.75C201.25 3.91781 197.313 0 192.5 0C187.668 0 183.75 3.91781 183.75 8.75V35H148.75V8.75C148.75 3.91781 144.813 0 140 0C135.187 0 131.25 3.91781 131.25 8.75V35H96.25V8.75C96.25 3.91781 92.3125 0 87.5 0C82.6875 0 78.75 3.91781 78.75 8.75V35H70C50.668 35 35 50.668 35 70V78.75H8.75C3.91781 78.75 0 82.6875 0 87.5C0 92.3125 3.91781 96.25 8.75 96.25H35V131.25H8.75C3.91781 131.25 0 135.187 0 140C0 144.813 3.91781 148.75 8.75 148.75H35V183.75H8.75C3.91781 183.75 0 187.687 0 192.5C0 197.313 3.91781 201.25 8.75 201.25H35V210C35 229.332 50.668 245 70 245H78.75V271.25C78.75 276.063 82.6875 280 87.5 280C92.3333 280 96.25 276.082 96.25 271.25V245H131.25V271.25C131.25 276.082 135.168 280 140 280C144.833 280 148.75 276.082 148.75 271.25V245H183.75V271.25C183.75 276.082 187.668 280 192.5 280C197.333 280 201.25 276.082 201.25 271.25V245H210C229.332 245 245 229.332 245 210V201.25H271.25C276.083 201.25 280 197.332 280 192.5C280 187.668 276.083 183.75 271.25 183.75H245V148.75H271.25C276.063 148.75 280 144.813 280 140C280 135.187 276.083 131.25 271.25 131.25H245V96.25ZM210 201.25C210 206.082 206.083 210 201.25 210H78.75C73.9375 210 70 206.063 70 201.25V78.75C70 73.9375 73.9375 70 78.75 70H201.25C206.063 70 210 73.9375 210 78.75V201.25Z"/></svg>