<svg xmlns="http://www.w3.org/2000/svg" width="280" height="140" fill="none" viewBox="0 0 280 140"><path fill="#C5FFFC" d="M210.026 7.54041e-07H70.005C58.4643 -0.00169308 47.1022 2.85032 36.9302 8.30206C26.7583 13.7538 18.0921 21.6361 11.7034 31.2473C5.31468 40.8584 1.40155 51.9001 0.312413 63.3892C-0.776727 74.8783 0.991915 86.4591 5.46088 97.0994C9.92985 107.74 16.9605 117.11 25.9268 124.376C34.8931 131.642 45.517 136.579 56.8525 138.745C68.188 140.912 79.8834 140.242 90.8976 136.796C101.912 133.349 111.903 127.234 119.981 118.992H160.018C168.096 127.233 178.086 133.348 189.098 136.795C200.111 140.241 211.806 140.912 223.14 138.747C234.474 136.582 245.097 131.646 254.065 124.383C263.031 117.119 270.062 107.752 274.533 97.1133C279.004 86.4751 280.775 74.8962 279.689 63.4081C278.603 51.9202 274.695 40.8785 268.31 31.2664C261.924 21.6542 253.263 13.7697 243.094 8.31471C232.925 2.85968 221.565 0.00338841 210.026 7.54041e-07ZM108.502 75.245C108.502 76.6369 107.949 77.972 106.965 78.9565C105.98 79.9409 104.645 80.4939 103.253 80.4939H80.5043V103.243C80.5043 104.635 79.9512 105.97 78.9667 106.954C77.9822 107.939 76.6469 108.492 75.2546 108.492H64.7554C63.3631 108.492 62.0279 107.939 61.0434 106.954C60.0589 105.97 59.5058 104.635 59.5058 103.243V80.4939H36.7574C35.3651 80.4939 34.0299 79.9409 33.0454 78.9565C32.0609 77.972 31.5078 76.6369 31.5078 75.245V64.7452C31.5078 63.3533 32.0609 62.0182 33.0454 61.0337C34.0299 60.0493 35.3651 59.4954 36.7574 59.4954H59.5058V36.7474C59.5058 35.3551 60.0589 34.0199 61.0434 33.0354C62.0279 32.0508 63.3631 31.4978 64.7554 31.4978H75.2546C76.6469 31.4978 77.9822 32.0508 78.9667 33.0354C79.9512 34.0199 80.5043 35.3551 80.5043 36.7474V59.4954H103.253C104.645 59.4954 105.98 60.0493 106.965 61.0337C107.949 62.0182 108.502 63.3533 108.502 64.7452V75.245ZM202.996 108.492C199.534 108.492 196.152 107.466 193.274 105.544C190.396 103.621 188.153 100.888 186.829 97.6902C185.504 94.4929 185.158 90.9737 185.833 87.58C186.508 84.1854 188.175 81.0668 190.622 78.6197C193.069 76.1726 196.188 74.5067 199.582 73.8311C202.976 73.1556 206.495 73.5023 209.692 74.8265C212.89 76.1517 215.623 78.3945 217.545 81.272C219.468 84.1495 220.494 87.5322 220.494 90.9936C220.494 95.6347 218.651 100.085 215.369 103.367C212.088 106.649 207.637 108.492 202.996 108.492ZM230.994 66.4949C227.532 66.4949 224.15 65.4686 221.272 63.5466C218.394 61.6236 216.151 58.8906 214.827 55.693C213.502 52.4956 213.156 48.9771 213.831 45.5826C214.506 42.1882 216.173 39.0703 218.62 36.623C221.067 34.1758 224.186 32.5092 227.58 31.834C230.974 31.1588 234.493 31.5053 237.69 32.8298C240.888 34.1542 243.621 36.3971 245.543 39.2747C247.466 42.1523 248.492 45.5356 248.492 48.9965C248.492 53.6375 246.649 58.0885 243.367 61.3695C240.086 64.6516 235.635 66.4949 230.994 66.4949Z"/></svg>