<svg width="280" height="280" viewBox="0 0 280 280" fill="none" xmlns="http://www.w3.org/2000/svg">
<path d="M280 140C280 217.328 217.328 280 140 280C62.6719 280 0 217.328 0 140C0 62.6719 62.6719 0 140 0C217.328 0 280 62.6719 280 140ZM31.5602 105.055L36.6789 114.516C41.2125 122.445 48.6664 128.297 57.4766 130.812L88.6484 139.836C98.5469 142.516 105 151.102 105 160.891V182.711C105 188.727 108.391 194.195 113.75 196.383C119.109 199.555 122.5 205.023 122.5 211.039V232.367C122.5 240.898 130.648 247.023 138.852 244.672C147.711 242.156 154.492 234.664 156.734 226.242L158.266 220.117C160.562 210.875 166.578 202.945 174.836 198.187L179.266 195.672C187.469 191.023 192.5 182.328 192.5 172.867V168.383C192.5 161.383 189.711 154.711 184.789 149.789L182.711 147.711C177.789 142.789 171.063 139.508 164.117 139.508H140.055C134.477 139.508 128.461 138.414 123.156 135.406L104.289 124.578C101.937 123.266 100.133 121.078 99.3125 118.508C97.5625 113.258 99.9141 107.57 104.836 105.055L108.117 103.469C111.727 101.664 115.883 101.336 119.273 102.648L132.453 106.859C136.883 108.336 141.805 106.641 144.43 102.758C147 98.875 146.727 93.7891 143.773 90.2344L136.336 81.375C130.867 74.8125 130.922 65.2422 136.5 58.7891L145.086 48.7375C149.898 43.1211 150.664 35.0875 147 28.6672L145.687 26.3922C143.336 26.2992 141.914 26.25 140 26.25C89.1953 26.25 46.1562 59.5547 31.5602 105.055ZM239.313 84.4922L225.312 90.125C216.727 93.5703 212.297 103.086 215.195 111.891L224.437 139.617C226.352 145.305 231 149.625 236.797 151.102L252.766 155.039C253.422 150.117 253.75 145.086 253.75 140C253.75 119.875 248.5 100.953 239.313 84.4922Z" fill="#C5FFFC"/>
</svg>
