<svg width="664" height="417" viewBox="0 0 664 417" fill="none" xmlns="http://www.w3.org/2000/svg">
<path fill-rule="evenodd" clip-rule="evenodd" d="M663.301 16.804C663.301 7.60311 655.775 0.133301 646.511 0.133301H17.0541C7.78995 0.133301 0.268799 7.60311 0.268799 16.804V399.574C0.268799 408.775 7.78995 416.245 17.0541 416.245H646.511C655.775 416.245 663.301 408.775 663.301 399.574V16.804Z" fill="#52FAF0"/>
<path fill-rule="evenodd" clip-rule="evenodd" d="M663.301 16.804C663.301 7.60311 655.775 0.133301 646.511 0.133301H17.0541C7.78995 0.133301 0.268799 7.60311 0.268799 16.804V399.574C0.268799 408.775 7.78995 416.245 17.0541 416.245H646.511C655.775 416.245 663.301 408.775 663.301 399.574V16.804Z" fill="url(#paint0_linear_113_352)" fill-opacity="0.35"/>
<defs>
<linearGradient id="paint0_linear_113_352" x1="331" y1="-12.5" x2="337" y2="428" gradientUnits="userSpaceOnUse">
<stop offset="0.0229409" stop-color="#158C9B"/>
<stop offset="0.438035" stop-color="#06C4B8"/>
<stop offset="1" stop-color="white" stop-opacity="0"/>
</linearGradient>
</defs>
</svg>
