<svg width="1920" height="1080" viewBox="0 0 1920 1080" fill="none" xmlns="http://www.w3.org/2000/svg">
    <g clip-path="url(#clip0_468_5)">
        <path fill-rule="evenodd" clip-rule="evenodd"
              d="M130.223 661.139C127.839 650.448 138.106 641.285 148.461 644.863L418.589 738.189C428.693 741.679 431.315 754.747 423.34 761.864L215.39 947.443C207.415 954.56 194.726 950.476 192.401 940.044L130.223 661.139Z"
              fill="url(#paint0_linear_468_5)"
              filter="url(#shadow)"/>
        <path fill-rule="evenodd" clip-rule="evenodd"
              d="M522.756 97.464C532.81 93.1163 543.737 101.481 542.166 112.323L492.826 452.95C491.293 463.529 478.95 468.557 470.463 462.06L203.942 258.021C195.454 251.523 197.084 238.294 206.894 234.052L522.756 97.464Z"
              fill="#52FAF0"
              filter="url(#shadow)"/>
        <path fill-rule="evenodd" clip-rule="evenodd"
              d="M1324.69 869.053C1313.97 866.814 1309.85 853.681 1317.39 845.724L1567.64 581.327C1574.98 573.564 1587.97 576.566 1591.16 586.767L1697.22 925.588C1700.41 935.789 1691.45 945.662 1680.99 943.477L1324.69 869.053Z"
              fill="url(#paint1_linear_468_5)"
              filter="url(#shadow)"/>
        <path fill-rule="evenodd" clip-rule="evenodd"
              d="M1352.04 209.803C1353.32 204.476 1359.94 202.613 1363.81 206.493L1424.69 267.576C1428.46 271.362 1426.77 277.808 1421.62 279.255L1340.66 302.026C1335.52 303.473 1330.71 298.854 1331.96 293.657L1352.04 209.803Z"
              fill="url(#paint2_linear_468_5)"
              filter="url(#shadow)"/>
        <path fill-rule="evenodd" clip-rule="evenodd"
              d="M847.355 713.214C852.952 707.75 862.374 710.54 864.095 718.172L890.898 837.018C892.578 844.468 885.627 850.974 878.305 848.806L764.342 815.055C757.02 812.887 754.731 803.644 760.194 798.31L847.355 713.214Z"
              fill="url(#paint3_linear_468_5)"
              filter="url(#shadow)"/>
        <circle cx="960" cy="156" r="50" fill="#FF58C0" filter="url(#shadow)"/>
        <circle cx="381.5" cy="829.5" r="32.5" fill="#52FAF0"  filter="url(#shadow)"/>
        <circle cx="1640" cy="679" r="64" fill="#F3D0AD" filter="url(#shadow)"/>
    </g>
    <defs>
        <filter id="shadow" x="-50%" y="-50%" width="200%" height="200%">
            <feOffset result="offOut" in="SourceGraphic" dx="0" dy="0" />
            <feGaussianBlur result="blurOut" in="offOut" stdDeviation="10" />
            <feBlend in="SourceGraphic" in2="blurOut" mode="normal" />
        </filter>

        <linearGradient id="paint0_linear_468_5" x1="124.774" y1="636.673" x2="319.331" y2="854.684"
                        gradientUnits="userSpaceOnUse">
            <stop stop-color="#F5D18C"/>
            <stop offset="1" stop-color="#F3D0AD"/>
        </linearGradient>
        <linearGradient id="paint1_linear_468_5" x1="1300.15" y1="863.922" x2="1644.21" y2="756.231"
                        gradientUnits="userSpaceOnUse">
            <stop stop-color="#FF58C0"/>
            <stop offset="1" stop-color="#FF7DD3"/>
        </linearGradient>
        <linearGradient id="paint2_linear_468_5" x1="1354.96" y1="197.616" x2="1381.13" y2="290.645"
                        gradientUnits="userSpaceOnUse">
            <stop stop-color="#52FAF0"/>
            <stop offset="1" stop-color="#158C9B"/>
        </linearGradient>
        <linearGradient id="paint3_linear_468_5" x1="1153.7" y1="851.413" x2="1114.84" y2="982.622"
                        gradientUnits="userSpaceOnUse">
            <stop stop-color="#F44D6B"/>
            <stop offset="1" stop-color="#FF58C0"/>
        </linearGradient>
        <clipPath id="clip0_468_5">
            <rect width="1920" height="1080" fill="white"/>
        </clipPath>
    </defs>
</svg>
