<svg xmlns="http://www.w3.org/2000/svg" width="960" height="480" fill="none" viewBox="0 0 960 480"><path fill="#138F9F" d="M938.526 305.059H22V319.578H938.526V305.059Z"/><path fill="#FF58C0" d="M811.883 406.932H148.479V397.565H811.883V406.932Z"/><path fill="#282829" d="M805.087 181.005H759.045V192.581H805.087V181.005Z"/><path fill="#282829" d="M821.476 251.189H696.59V262.766H821.476V251.189Z"/><path fill="#282829" d="M262.3 112.7H179.724V126H262.3V112.7Z"/><path fill="#282829" d="M867.908 212.475H797.481V229.474H867.908V212.475Z"/><path fill="#282829" d="M195.116 142.993H92.9224V154.568H195.116V142.993Z"/><path fill="#282829" d="M221.011 169.381H179.724V180.957H221.011V169.381Z"/><path fill="#282829" fill-rule="evenodd" d="M133.95 94.5356L169.121 106.698L142.036 130.856L133.95 94.5356Z" clip-rule="evenodd"/><path fill="#282829" fill-rule="evenodd" d="M845.249 263.584L845.617 236.439L868.129 248.968L845.249 263.584Z" clip-rule="evenodd"/><path fill="#52FAF0" d="M795.67 175.549H749.628V187.125H795.67V175.549Z"/><path fill="#138F9F" d="M812.096 245.733H687.21V257.31H812.096V245.733Z"/><path fill="#138F9F" d="M252.92 107.244H170.344V120.544H252.92V107.244Z"/><path fill="#E7C7A5" d="M858.492 207.019H788.065V224.018H858.492V207.019Z"/><path fill="#DABC9D" d="M185.699 137.537H83.5054V149.113H185.699V137.537Z"/><path fill="#52FAF0" d="M211.631 163.925H170.344V175.501H211.631V163.925Z"/><path fill="#FF58C0" fill-rule="evenodd" d="M124.533 89.0795L159.704 101.242L132.619 125.4L124.533 89.0795Z" clip-rule="evenodd"/><path fill="#FF58C0" fill-rule="evenodd" d="M835.832 258.128L836.2 230.983L858.712 243.512L835.832 258.128Z" clip-rule="evenodd"/><path fill="#F5D18C" d="M671.558 175.494L581.566 266.897L595.818 280.929L685.81 189.526L671.558 175.494Z"/><path fill="#F5D18C" d="M671.558 175.494L581.566 266.897L595.818 280.929L685.81 189.526L671.558 175.494Z"/><path fill="#F5D18C" d="M393.266 283.4L279.933 169.733L371.2 76.3334L385.466 90.3334L308.066 169.6L407.4 269.267L393.266 283.4Z"/><path fill="#F5D18C" d="M548.21 96.6377L400.219 246.949L414.471 260.981L562.462 110.67L548.21 96.6377Z"/><path fill="#F5D18C" d="M387.466 234.2L320.733 167.533L390 161.667V95.2001L431.2 136.4L458.533 163.4L446.8 175.2L419.466 148.2L406.666 135.4V176.933L357.933 181.067L399.2 222.4L387.466 234.2Z"/><path fill="#F5D18C" d="M572.2 255.933L542.2 226.667L507.2 192.667L518.8 180.667L547.8 208.867L590.866 164.533L561.533 136.333L573.133 124.333L608.466 158.333L602.666 164.333L608.466 158.4L639.133 188.4L627.533 200.267L602.8 176.133L559.733 220.533L583.8 244.067L572.2 255.933Z"/><path fill="#138F9F" d="M390.6 280.733L277.267 167.067L368.533 73.6666L382.8 87.6666L305.4 166.933L404.733 266.6L390.6 280.733Z"/><path fill="#138F9F" d="M593.133 278.333L578.867 264.333L654.533 186.8L614.733 147.533L551.133 87.6L564.867 73.0667L628.667 133.2L682.8 186.533L593.133 278.333Z"/><path fill="#06C4B8" d="M545.854 94.3139L397.863 244.625L412.115 258.657L560.106 108.346L545.854 94.3139Z"/><path fill="#52FAF0" d="M384.8 231.533L318.066 164.867L387.333 159V92.5333L428.533 133.8L455.866 160.733L444.133 172.6L416.8 145.6L404 132.8V174.333L355.266 178.467L396.533 219.8L384.8 231.533Z"/><path fill="#52FAF0" d="M569.533 253.267L539.533 224L504.533 190L516.133 178L545.133 206.133L587.6 161.533L558.867 133.667L570.467 121.667L605.133 155.333L636.467 185.667L624.867 197.667L599.6 173.133L557.067 217.8L581.133 241.4L569.533 253.267Z"/><path fill="#fff" d="M119.172 344.438H118.875L115.266 351.578L105.094 370.109L94.9062 351.578L91.3125 344.438H91V380.297H86V337.734H92.8281L105.031 360.656H105.328L117.594 337.734H124.172V380.297H119.172V344.438Z"/><path fill="#fff" d="M178.518 380.297L174.237 367.734H157.049L152.784 380.297H147.596L162.471 337.734H169.002L183.877 380.297H178.518ZM165.768 342.484H165.456L158.268 363.219H172.956L165.768 342.484Z"/><path fill="#fff" d="M219.249 381.031C215.788 381.031 212.843 380.367 210.405 379.047C207.968 377.727 205.894 375.906 204.187 373.594L207.968 370.422C209.468 372.414 211.132 373.93 212.968 374.969C214.8 376 216.956 376.516 219.437 376.516C222.476 376.516 224.8 375.789 226.405 374.328C228.019 372.859 228.827 370.906 228.827 368.469C228.827 366.438 228.218 364.875 226.999 363.781C225.78 362.68 223.765 361.797 220.952 361.141L217.483 360.359C213.577 359.465 210.597 358.109 208.546 356.297C206.491 354.484 205.468 351.934 205.468 348.641C205.468 346.777 205.812 345.117 206.499 343.656C207.194 342.188 208.163 340.965 209.405 339.984C210.644 339.008 212.124 338.266 213.843 337.766C215.569 337.258 217.472 337 219.546 337C222.765 337 225.519 337.59 227.812 338.766C230.112 339.945 232.054 341.672 233.64 343.953L229.796 346.75C228.616 345.125 227.194 343.852 225.53 342.922C223.862 341.984 221.788 341.516 219.312 341.516C216.581 341.516 214.437 342.094 212.874 343.25C211.312 344.406 210.53 346.148 210.53 348.469C210.53 350.5 211.19 352.039 212.515 353.078C213.835 354.109 215.835 354.93 218.515 355.531L221.999 356.328C226.187 357.266 229.21 358.695 231.077 360.609C232.952 362.516 233.89 365.055 233.89 368.219C233.89 370.18 233.55 371.949 232.874 373.531C232.206 375.117 231.241 376.461 229.983 377.562C228.722 378.656 227.187 379.512 225.374 380.125C223.569 380.727 221.53 381.031 219.249 381.031Z"/><path fill="#fff" d="M271.023 381.031C267.562 381.031 264.617 380.367 262.179 379.047C259.742 377.727 257.667 375.906 255.96 373.594L259.742 370.422C261.242 372.414 262.906 373.93 264.742 374.969C266.574 376 268.73 376.516 271.21 376.516C274.25 376.516 276.574 375.789 278.179 374.328C279.792 372.859 280.601 370.906 280.601 368.469C280.601 366.438 279.992 364.875 278.773 363.781C277.554 362.68 275.539 361.797 272.726 361.141L269.257 360.359C265.351 359.465 262.371 358.109 260.32 356.297C258.265 354.484 257.242 351.934 257.242 348.641C257.242 346.777 257.585 345.117 258.273 343.656C258.968 342.188 259.937 340.965 261.179 339.984C262.417 339.008 263.898 338.266 265.617 337.766C267.343 337.258 269.246 337 271.32 337C274.539 337 277.292 337.59 279.585 338.766C281.886 339.945 283.828 341.672 285.414 343.953L281.57 346.75C280.39 345.125 278.968 343.852 277.304 342.922C275.636 341.984 273.562 341.516 271.085 341.516C268.355 341.516 266.21 342.094 264.648 343.25C263.085 344.406 262.304 346.148 262.304 348.469C262.304 350.5 262.964 352.039 264.289 353.078C265.609 354.109 267.609 354.93 270.289 355.531L273.773 356.328C277.96 357.266 280.984 358.695 282.851 360.609C284.726 362.516 285.664 365.055 285.664 368.219C285.664 370.18 285.324 371.949 284.648 373.531C283.98 375.117 283.015 376.461 281.757 377.562C280.496 378.656 278.96 379.512 277.148 380.125C275.343 380.727 273.304 381.031 271.023 381.031Z"/><path fill="#fff" d="M310.846 380.297V337.734H336.83V342.25H315.971V356.516H335.611V361.031H315.971V375.781H336.83V380.297H310.846Z"/><path fill="#fff" d="M372.492 380.297V363.469L357.867 337.734H363.71L375.054 358.219H375.242L386.585 337.734H392.445L377.617 363.281V380.297H372.492Z"/><path fill="#fff" d="M441.905 361.031H420.374V380.297H415.249V337.734H420.374V356.516H441.905V337.734H447.014V380.297H441.905V361.031Z"/><path fill="#fff" d="M501.363 380.297L497.082 367.734H479.894L475.628 380.297H470.441L485.316 337.734H491.847L506.722 380.297H501.363ZM488.613 342.484H488.3L481.113 363.219H495.8L488.613 342.484Z"/><path fill="#fff" d="M545.14 381.031C539.734 381.031 535.523 379.195 532.515 375.516C529.503 371.828 528 366.406 528 359.25C528 352.105 529.503 346.609 532.515 342.766C535.523 338.922 539.734 337 545.14 337C548.722 337 551.722 337.812 554.14 339.438C556.554 341.062 558.437 343.359 559.781 346.328L555.625 348.828C554.769 346.633 553.468 344.875 551.718 343.562C549.976 342.242 547.785 341.578 545.14 341.578C543.304 341.578 541.664 341.922 540.218 342.609C538.781 343.297 537.562 344.281 536.562 345.562C535.57 346.844 534.812 348.371 534.281 350.141C533.757 351.914 533.5 353.898 533.5 356.094V362.422C533.5 366.82 534.515 370.258 536.546 372.734C538.578 375.215 541.441 376.453 545.14 376.453C547.867 376.453 550.144 375.758 551.968 374.359C553.8 372.953 555.144 371.09 556 368.766L560.078 371.328C558.742 374.34 556.816 376.711 554.296 378.438C551.773 380.168 548.722 381.031 545.14 381.031Z"/><path fill="#fff" d="M595.511 359.375L589.48 366.094V380.297H584.355V337.734H589.48V360.359H589.667L595.761 352.969L608.621 337.734H614.902L599.058 355.969L616.011 380.297H609.667L595.511 359.375Z"/><path fill="#fff" d="M651.315 381.031C647.854 381.031 644.909 380.367 642.471 379.047C640.034 377.727 637.959 375.906 636.252 373.594L640.034 370.422C641.534 372.414 643.198 373.93 645.034 374.969C646.866 376 649.022 376.516 651.502 376.516C654.542 376.516 656.866 375.789 658.471 374.328C660.084 372.859 660.893 370.906 660.893 368.469C660.893 366.438 660.284 364.875 659.065 363.781C657.846 362.68 655.831 361.797 653.018 361.141L649.549 360.359C645.643 359.465 642.663 358.109 640.612 356.297C638.557 354.484 637.534 351.934 637.534 348.641C637.534 346.777 637.877 345.117 638.565 343.656C639.26 342.188 640.229 340.965 641.471 339.984C642.709 339.008 644.19 338.266 645.909 337.766C647.635 337.258 649.538 337 651.612 337C654.831 337 657.584 337.59 659.877 338.766C662.178 339.945 664.12 341.672 665.706 343.953L661.862 346.75C660.682 345.125 659.26 343.852 657.596 342.922C655.928 341.984 653.854 341.516 651.377 341.516C648.647 341.516 646.502 342.094 644.94 343.25C643.377 344.406 642.596 346.148 642.596 348.469C642.596 350.5 643.256 352.039 644.581 353.078C645.901 354.109 647.901 354.93 650.581 355.531L654.065 356.328C658.252 357.266 661.276 358.695 663.143 360.609C665.018 362.516 665.956 365.055 665.956 368.219C665.956 370.18 665.616 371.949 664.94 373.531C664.272 375.117 663.307 376.461 662.049 377.562C660.788 378.656 659.252 379.512 657.44 380.125C655.635 380.727 653.596 381.031 651.315 381.031Z"/><path fill="#fff" d="M731.576 380.297L717.419 337.734H722.904L729.919 359.203L734.623 375.172H734.919L739.748 359.203L746.81 337.734H752.123L737.794 380.297H731.576Z"/><path fill="#fff" d="M773.339 380.297V376.031H779.324V342H773.339V337.734H790.417V342H784.449V376.031H790.417V380.297H773.339Z"/><path fill="#fff" d="M814.076 380.297V376.031H820.061V342H814.076V337.734H831.154V342H825.186V376.031H831.154V380.297H814.076Z"/><path fill="#fff" d="M854.813 380.297V376.031H860.797V342H854.813V337.734H871.891V342H865.922V376.031H871.891V380.297H854.813Z"/></svg>