<svg width="428" height="425" viewBox="0 0 428 425" fill="none" xmlns="http://www.w3.org/2000/svg">
<g clip-path="url(#clip0_177_2450)">
<path fill-rule="evenodd" clip-rule="evenodd" d="M34.7425 199.063L129.303 237.715L93.1838 300.255H-23.6992L-59.8179 237.715L34.7425 199.063Z" fill="#2D2E2F"/>
<path fill-rule="evenodd" clip-rule="evenodd" d="M87.7072 149.376L117.63 159.481L114.499 208.628L75.5714 178.61L87.7072 149.376Z" fill="#222325"/>
<path fill-rule="evenodd" clip-rule="evenodd" d="M142.707 126.872L174.28 97.8439L193.821 150.964L178.034 165.477L142.707 126.872Z" fill="#29292A"/>
<path fill-rule="evenodd" clip-rule="evenodd" d="M349.977 159.047L343.233 260.266L304.205 246.552L270.767 222.151L349.977 159.047Z" fill="#29292A"/>
<path fill-rule="evenodd" clip-rule="evenodd" d="M270.662 149.307L295.963 170.143L284.917 184.931L266.744 181.907L270.662 149.307Z" fill="#2A2B2C"/>
<path fill-rule="evenodd" clip-rule="evenodd" d="M221.304 147.305L226.168 128.473L238.551 138.386L221.304 147.305Z" fill="#262729"/>
<path fill-rule="evenodd" clip-rule="evenodd" d="M261.856 200.097L272.154 208.143L260.963 213.159L261.856 200.097Z" fill="#28282A"/>
<path fill-rule="evenodd" clip-rule="evenodd" d="M72.4526 166.858L61.7385 154.685L77.0114 151.273L72.4526 166.858Z" fill="#212121"/>
<path fill-rule="evenodd" clip-rule="evenodd" d="M402.869 112.344L401.297 132.671L387.387 125.56L402.869 112.344Z" fill="#272829"/>
<path fill-rule="evenodd" clip-rule="evenodd" d="M96.9748 94.249L91.0183 104.231L86.1213 98.3641L96.9748 94.249Z" fill="#2D2E2F"/>
<path fill-rule="evenodd" clip-rule="evenodd" d="M389.924 320.734L172.376 368.133L180.187 213.434L389.924 320.734Z" fill="#29292A"/>
<path fill-rule="evenodd" clip-rule="evenodd" d="M419.096 145.309L456.158 220.643L395.568 274.072L321.059 231.758L335.6 152.178L419.096 145.309Z" fill="#222325"/>
<path fill-rule="evenodd" clip-rule="evenodd" d="M338.674 199.076L428.468 293.308L357.752 382.52L224.253 343.423L212.463 230.049L338.674 199.076Z" fill="#242424"/>
<path fill-rule="evenodd" clip-rule="evenodd" d="M195.563 206.974L175.223 297.863L84.6835 318.848L105.024 227.959L195.563 206.974Z" fill="#1D1D1D"/>
<path fill-rule="evenodd" clip-rule="evenodd" d="M349.623 140.463L371.479 149.489L355.05 163.524L349.623 140.463Z" fill="#212121"/>
<path d="M35.733 369.966L458.475 414.144L469.404 308.727L46.662 264.549L35.733 369.966Z" fill="#252526"/>
<path d="M124.04 444.911L529.551 317.105L497.888 216.029L92.3767 343.835L124.04 444.911Z" fill="#2E2F30"/>
<path d="M370.74 276.437L371.797 276.443L371.826 271.466L370.769 271.459L370.74 276.437Z" fill="#2E2F30"/>
<path fill-rule="evenodd" clip-rule="evenodd" d="M251.027 294.079L396.901 248.111L388.233 348.408L315.295 371.392L251.027 294.079Z" fill="#29292A"/>
<path fill-rule="evenodd" clip-rule="evenodd" d="M444.103 288.22L344.569 264.538L442.179 233.246L444.103 288.22Z" fill="#242424"/>
<path d="M-76.728 307.764L303.35 498.595L350.667 403.851L-29.4114 213.019L-76.728 307.764Z" fill="#212121"/>
<path fill-rule="evenodd" clip-rule="evenodd" d="M-36.6028 279.198L79.8434 267.892L57.0222 336.034L-1.20008 341.687L-36.6028 279.198Z" fill="#1D1D1D"/>
<path fill-rule="evenodd" clip-rule="evenodd" d="M370.948 424.949L342.886 345.14L463.5 302.461L370.948 424.949Z" fill="#1D1D1D"/>
</g>
<defs>
<clipPath id="clip0_177_2450">
<rect width="428" height="425" fill="white"/>
</clipPath>
</defs>
</svg>
