<?xml version="1.0" encoding="utf-8"?>
<!-- Generator: Adobe Illustrator 26.0.3, SVG Export Plug-In . SVG Version: 6.00 Build 0)  -->
<svg version="1.1" xmlns="http://www.w3.org/2000/svg" xmlns:xlink="http://www.w3.org/1999/xlink" x="0px" y="0px"
	 viewBox="0 0 618 324" style="enable-background:new 0 0 618 324;" xml:space="preserve">
<style type="text/css">
	.st0{fill:#F5D18C;}
	.st1{fill:#138F9F;}
	.st2{fill:#06C4B8;}
	.st3{fill:#52FAF0;}
	.st4{display:none;}
</style>
<g id="Layer_1">
	<g id="Layer_3">
	</g>
	<g id="Layer_2">
		<g>
			
				<rect x="441" y="221.9" transform="matrix(0.7016 -0.7126 0.7126 0.7016 -8.5301 453.5302)" class="st0" width="192.4" height="30"/>
			
				<rect x="441" y="221.9" transform="matrix(0.7016 -0.7126 0.7126 0.7016 -8.5301 453.5302)" class="st0" width="192.4" height="30"/>
			<g>
				<polygon class="st0" points="176.6,319.8 6.6,149.3 143.5,9.2 164.9,30.1 48.8,149.1 197.8,298.6 				"/>
			</g>
			
				<rect x="150.5" y="147.9" transform="matrix(0.7016 -0.7126 0.7126 0.7016 -23.9316 268.5859)" class="st0" width="316.4" height="30"/>
			<polygon class="st0" points="167.9,246 67.8,145.9 171.7,137.1 171.7,37.4 233.5,99.3 274.5,139.7 256.9,157.5 215.9,117 
				196.7,97.8 196.7,160.1 123.6,166.3 185.5,228.3 			"/>
			<polygon class="st0" points="445,278.6 400,234.6 347.5,183.6 364.9,165.7 408.4,208 473,141.5 429,99.2 446.4,81.2 499.4,132.2 
				490.7,141.2 499.4,132.2 545.4,177.2 528,195.1 490.9,158.9 426.3,225.4 462.4,260.7 			"/>
			<g>
				<polygon class="st1" points="172.6,315.8 2.6,145.3 139.5,5.2 160.9,26.1 44.8,145.1 193.8,294.6 				"/>
			</g>
			<g>
				<polygon class="st1" points="476.4,312.1 455,291.2 568.5,174.9 508.8,116 413.4,26.1 434,4.2 529.7,94.5 610.9,174.5 				"/>
			</g>
			<g>
				
					<rect x="147" y="144.4" transform="matrix(0.7016 -0.7126 0.7126 0.7016 -22.517 265.0619)" class="st2" width="316.4" height="30"/>
			</g>
			<g>
				<polygon class="st3" points="163.9,242 63.8,142 167.7,133.2 167.7,33.5 229.5,95.3 270.5,135.8 252.9,153.6 211.9,113.1 
					192.7,93.8 192.7,156.1 119.6,162.3 181.5,224.3 				"/>
			</g>
			<g>
				<polygon class="st3" points="441,274.6 396,230.6 343.5,179.6 360.9,161.7 404.3,203.9 468.1,137 425,95.1 442.4,77.2 
					494.4,127.7 541.4,173.2 524,191.1 486,154.4 422.3,221.4 458.4,256.7 				"/>
			</g>
		</g>
	</g>
</g>
<g id="Layer_4" class="st4">
</g>
</svg>
