<svg xmlns="http://www.w3.org/2000/svg" width="318" height="167" fill="none" viewBox="0 0 318 167"><g clip-path="url(#clip0_444_338)"><path fill="#F5D18C" d="M306.863 79.1088L237.492 149.657L248.479 160.487L317.85 89.9392L306.863 79.1088Z"/><path fill="#F5D18C" d="M306.863 79.1088L237.492 149.657L248.479 160.487L317.85 89.9392L306.863 79.1088Z"/><path fill="#F5D18C" d="M92.3389 162.394L4.97461 74.6622L75.3286 2.57275L86.3262 13.3785L26.6615 74.5593L103.234 151.486L92.3389 162.394Z"/><path fill="#F5D18C" d="M211.779 18.2443L97.6982 134.26L108.685 145.09L222.765 29.0747L211.779 18.2443Z"/><path fill="#F5D18C" d="M87.8679 124.42L36.4258 72.9642L89.8208 68.4361V17.1348L121.58 48.9344L142.65 69.7739L133.606 78.8816L112.536 58.042L102.668 48.1626V80.2194L65.1018 83.4097L96.9127 115.312L87.8679 124.42Z"/><path fill="#F5D18C" d="M230.272 141.194L207.146 118.605L180.166 92.3629L189.108 83.1009L211.463 104.867L244.661 70.6486L222.049 48.8829L230.991 39.6208L258.229 65.8633L253.758 70.4943L258.229 65.9147L281.868 89.0698L272.926 98.2289L253.86 79.6019L220.662 113.871L239.214 132.035L230.272 141.194Z"/><path fill="#138F9F" d="M90.2832 160.336L2.91895 72.6041L73.2729 0.514648L84.2705 11.3203L24.6058 72.5012L101.178 149.427L90.2832 160.336Z"/><path fill="#138F9F" d="M246.408 158.484L235.411 147.678L293.739 87.8349L263.059 57.5275L214.032 11.2689L224.619 0.0515137L273.8 46.4646L315.529 87.6291L246.408 158.484Z"/><path fill="#06C4B8" d="M209.962 16.4509L95.8818 132.466L106.868 143.297L220.949 27.2813L209.962 16.4509Z"/><path fill="#52FAF0" d="M85.8123 122.362L34.3701 70.9061L87.7651 66.378V15.0767L119.525 46.9277L140.595 67.7158L131.55 76.875L110.48 56.0354L100.613 46.1559V78.2128L63.0462 81.4031L94.857 113.306L85.8123 122.362Z"/><path fill="#52FAF0" d="M228.216 139.136L205.091 116.547L178.11 90.3048L187.052 81.0428L209.407 102.757L242.143 68.3333L219.994 46.8248L228.936 37.5627L255.659 63.5479L279.813 86.9602L270.871 96.2222L251.394 77.2865L218.606 111.762L237.158 129.977L228.216 139.136Z"/></g><defs><clipPath id="clip0_444_338"><rect width="317.595" height="166.716" fill="#fff" transform="translate(0.400391)"/></clipPath></defs></svg>